<svg xmlns="http://www.w3.org/2000/svg" viewBox="0 0 96 96" fill="none">
  
  <circle cx="48" cy="48" r="46" fill="#f6f2ea" stroke="#eadfce" stroke-width="1.5"></circle>
  
  <path d="M16 90 C 22 70, 36 64, 48 64 C 60 64, 74 70, 80 90" fill="#12352d"></path>
  
  <path d="M40 70 L48 78 L56 70" stroke="#fbfaf7" stroke-width="1.5" fill="none"></path>
  
  <ellipse cx="48" cy="42" rx="16" ry="18" fill="#e8d3b7"></ellipse>
  
  <path d="M32 38 C 32 26, 40 20, 48 20 C 58 20, 64 28, 64 38 C 64 36, 60 32, 48 32 C 38 32, 32 36, 32 38 Z" fill="#10201b"></path>
  
  <circle cx="42" cy="44" r="4" fill="none" stroke="#10201b" stroke-width="1.5"></circle>
  <circle cx="54" cy="44" r="4" fill="none" stroke="#10201b" stroke-width="1.5"></circle>
  <line x1="46" y1="44" x2="50" y2="44" stroke="#10201b" stroke-width="1.5"></line>
</svg>